<?xml version="1.0" encoding="UTF-8"?>
<svg id="Layer_2" data-name="Layer 2" xmlns="http://www.w3.org/2000/svg" viewBox="0 0 61.85 54.63">
  <defs>
    <style>
      .cls-1 {
        fill: #b7bdf8;
      }
    </style>
  </defs>
  <g id="Layer_2-2" data-name="Layer 2">
    <g id="Layer_1-2" data-name="Layer 1-2">
      <path class="cls-1" d="M13.41,3.68c7.09,5.34,14.72,16.17,17.52,21.98v15.35c0-.33-.13.04-.4.84-1.46,4.31-7.17,21.11-20.22,7.68-6.87-7.07-3.69-14.15,8.82-16.28-7.16,1.22-15.2-.8-17.41-8.71C1.08,22.25,0,8.22,0,6.33,0-3.16,8.29-.18,13.41,3.68ZM48.44,3.68c-7.09,5.34-14.72,16.17-17.52,21.98v15.35c0-.33.13.04.4.84,1.46,4.31,7.17,21.11,20.22,7.68,6.87-7.07,3.69-14.15-8.82-16.28,7.16,1.22,15.2-.8,17.41-8.71.64-2.28,1.72-16.3,1.72-18.2,0-9.49-8.29-6.51-13.41-2.65Z"/>
    </g>
  </g>
</svg>